<?xml version="1.0" encoding="utf-8"?>
<!-- Generator: Adobe Illustrator 16.0.0, SVG Export Plug-In . SVG Version: 6.00 Build 0)  -->
<!DOCTYPE svg PUBLIC "-//W3C//DTD SVG 1.1//EN" "http://www.w3.org/Graphics/SVG/1.1/DTD/svg11.dtd">
<svg version="1.1" id="Layer_1" xmlns="http://www.w3.org/2000/svg" xmlns:xlink="http://www.w3.org/1999/xlink" x="0px" y="0px"
	 width="512px" height="512px" viewBox="0 0 512 512" enable-background="new 0 0 512 512" xml:space="preserve">
<g>
	<path d="M224.672,292.204h-3.1l-9.476-53.938c-1.1-6.257-6.274-11.149-12.593-11.892c-19.09-2.236-38.434-3.372-57.495-3.372
		c-19.068,0-38.413,1.137-57.503,3.372c-6.414,0.753-11.471,5.534-12.59,11.892c-2.396,13.609-4.787,27.218-7.177,40.83
		l-2.303,13.108h-3.096c-7.999,0-14.504,6.506-14.504,14.5v50.65c0,7.483,5.695,13.656,12.976,14.427V396h39.156v-24.14h90.073V396
		h39.156v-24.219c7.281-0.771,12.974-6.943,12.974-14.427v-50.65C239.172,298.711,232.67,292.204,224.672,292.204z M79.966,340.856
		c-6.086,0-11.036-4.953-11.036-11.039c0-6.083,4.95-11.033,11.036-11.033c6.089,0,11.04,4.95,11.04,11.033
		C91.006,335.903,86.055,340.856,79.966,340.856z M171.229,336.765c0,0.955-0.355,1.813-1.027,2.485
		c-0.672,0.671-1.533,1.028-2.488,1.028h-51.415c-1.94,0-3.517-1.574-3.517-3.517v-14.238c0-1.937,1.576-3.516,3.517-3.516h51.414
		c1.939,0,3.517,1.579,3.517,3.516V336.765z M89.748,286.799l0.73-4.15l5.16-29.391c0.493-2.797,2.637-4.822,5.46-5.151
		c13.577-1.594,27.336-2.399,40.91-2.399c13.57,0,27.335,0.807,40.905,2.401c2.822,0.327,4.968,2.356,5.459,5.154l5.89,33.536
		H89.748z M204.046,340.856c-6.089,0-11.04-4.953-11.04-11.039c0-6.083,4.951-11.033,11.04-11.033
		c6.087,0,11.036,4.95,11.036,11.033C215.082,335.903,210.133,340.856,204.046,340.856z"/>
	<path d="M48.583,116v78.882h221.795V396h196.784V116H48.583z M368.775,338.354c-23.892,0-43.256-19.361-43.256-43.246
		s43.256-73.733,43.256-73.733s43.244,49.849,43.244,73.733S392.658,338.354,368.775,338.354z"/>
</g>
</svg>
