<?xml version="1.0" encoding="utf-8"?>
<!-- Generator: Adobe Illustrator 16.0.0, SVG Export Plug-In . SVG Version: 6.00 Build 0)  -->
<!DOCTYPE svg PUBLIC "-//W3C//DTD SVG 1.1//EN" "http://www.w3.org/Graphics/SVG/1.1/DTD/svg11.dtd">
<svg version="1.1" id="Layer_1" xmlns="http://www.w3.org/2000/svg" xmlns:xlink="http://www.w3.org/1999/xlink" x="0px" y="0px"
	 width="512px" height="512px" viewBox="0 0 512 512" enable-background="new 0 0 512 512" xml:space="preserve">
<g>
	<polygon points="351.439,327.789 307.949,337.686 307.949,362.765 351.439,352.868 	"/>
	<path d="M351.439,91.006c-16.043,0.183-30.922,1.187-43.49,2.796v24.088l43.49-9.896V91.006z"/>
	<polygon points="351.439,205.392 307.949,215.288 307.949,240.287 351.439,230.391 	"/>
	<polygon points="351.439,123.739 307.949,133.636 307.949,158.717 351.439,148.82 	"/>
	<polygon points="351.439,164.566 307.949,174.463 307.949,199.541 351.439,189.645 	"/>
	<polygon points="351.439,286.963 307.949,296.86 307.949,321.939 351.439,312.041 	"/>
	<polygon points="351.439,246.22 307.949,256.114 307.949,281.112 351.439,271.216 	"/>
	<polygon points="124.525,302.519 92.512,309.803 92.512,328.203 124.525,320.918 	"/>
	<polygon points="124.525,332.509 92.512,339.794 92.512,358.255 124.525,350.969 	"/>
	<path d="M124.525,188.385c-12.213,0.886-23.121,2.275-32.014,4.037v15.632l32.014-7.284V188.385z"/>
	<polygon points="124.525,272.465 92.512,279.749 92.512,298.15 124.525,290.866 	"/>
	<polygon points="124.525,212.36 92.512,219.645 92.512,238.104 124.525,230.819 	"/>
	<polygon points="124.525,242.414 92.512,249.697 92.512,268.158 124.525,260.874 	"/>
	<path d="M444.154,386.104c0.021-79.54,0.072-278.261,0.072-278.449c0-8.901-36.582-16.173-82.648-16.654v295.104h-10.139v-17.488
		l-43.49,9.896v7.593h-10.139V95.319c-17.578,3.05-28.611,7.448-28.611,12.335c0,0.188,0.082,198.909,0.117,278.449h-26.277
		c0.023-59.871,0.072-181.942,0.072-182.121c0-9.214-39.18-16.681-87.514-16.681c-8.182,0-16.098,0.215-23.609,0.615v198.187
		h-29.793l22.33-5.081v-18.461l-32.014,7.284v16.258h-7.461V194.111c-10.664,2.766-16.965,6.179-16.965,9.871
		c0,0.179,0.072,122.25,0.107,182.121H42.225V421h427.551v-34.896H444.154z"/>
</g>
</svg>
