<?xml version="1.0" encoding="utf-8"?>
<!-- Generator: Adobe Illustrator 16.0.0, SVG Export Plug-In . SVG Version: 6.00 Build 0)  -->
<!DOCTYPE svg PUBLIC "-//W3C//DTD SVG 1.1//EN" "http://www.w3.org/Graphics/SVG/1.1/DTD/svg11.dtd">
<svg version="1.1" id="Layer_1" xmlns="http://www.w3.org/2000/svg" xmlns:xlink="http://www.w3.org/1999/xlink" x="0px" y="0px"
	 width="512px" height="512px" viewBox="0 0 512 512" enable-background="new 0 0 512 512" xml:space="preserve">
<g>
	<path d="M101.547,290.135h132.099c34.956,0,63.296-28.338,63.296-63.297c0-34.957-28.34-63.299-63.296-63.299H101.547
		c-34.961,0-63.3,28.342-63.3,63.299C38.247,261.797,66.586,290.135,101.547,290.135z M167.597,195.904
		c0,0,22.869,26.363,22.869,38.994c0,12.633-10.239,22.873-22.869,22.873c-12.635,0-22.875-10.24-22.875-22.873
		C144.722,222.268,167.597,195.904,167.597,195.904z"/>
	<path d="M481,301.496h-8.356l-2.782-15.893h2.102v-23.471h-7.45l-4.662-20.486h-39.958l-17.227-73.648h-77.462v-37.262h-20v170.76
		H47.4v-15.383H31v45.453h21.633c-1.006,3.447-1.558,7.09-1.558,10.857c0,21.416,17.425,38.84,38.84,38.84
		c21.418,0,38.841-17.424,38.841-38.84c0-3.768-0.55-7.41-1.555-10.857h11.741c-1.005,3.447-1.557,7.09-1.557,10.857
		c0,21.416,17.425,38.84,38.84,38.84c21.418,0,38.839-17.424,38.839-38.84c0-3.768-0.548-7.41-1.553-10.857H369.99
		c-1.005,3.447-1.556,7.09-1.556,10.857c0,21.416,17.424,38.84,38.843,38.84c21.414,0,38.839-17.424,38.839-38.84
		c0-3.768-0.552-7.41-1.558-10.857H481V301.496z M89.915,363.496c-11.617,0-21.07-9.453-21.07-21.072s9.453-21.074,21.07-21.074
		c11.619,0,21.074,9.455,21.074,21.074S101.534,363.496,89.915,363.496z M176.226,363.496c-11.617,0-21.07-9.453-21.07-21.072
		s9.453-21.074,21.07-21.074c11.619,0,21.074,9.455,21.074,21.074S187.845,363.496,176.226,363.496z M333.26,249.014v-55.207h49.658
		l12.238,55.205L333.26,249.014z M407.277,363.496c-11.621,0-21.075-9.453-21.075-21.072s9.454-21.074,21.075-21.074
		c11.615,0,21.069,9.455,21.069,21.074S418.893,363.496,407.277,363.496z"/>
</g>
</svg>
