<?xml version="1.0" encoding="utf-8"?>
<!-- Generator: Adobe Illustrator 16.0.0, SVG Export Plug-In . SVG Version: 6.00 Build 0)  -->
<!DOCTYPE svg PUBLIC "-//W3C//DTD SVG 1.1//EN" "http://www.w3.org/Graphics/SVG/1.1/DTD/svg11.dtd">
<svg version="1.1" id="Layer_1" xmlns="http://www.w3.org/2000/svg" xmlns:xlink="http://www.w3.org/1999/xlink" x="0px" y="0px"
	 width="512px" height="512px" viewBox="0 0 512 512" enable-background="new 0 0 512 512" xml:space="preserve">
<g>
	<path d="M293.285,247.424c-0.395-2.249-2.12-3.881-4.39-4.144c-10.913-1.283-21.98-1.933-32.894-1.933
		c-10.916,0-21.98,0.648-32.897,1.931c-2.271,0.265-3.995,1.895-4.392,4.141l-4.15,23.636l-0.586,3.338h84.045L293.285,247.424z"/>
	<path d="M276.672,300.294h-41.346c-1.561,0-2.827,1.271-2.827,2.827v11.449c0,1.561,1.267,2.828,2.827,2.828h41.348
		c0.768,0,1.46-0.287,2-0.827c0.54-0.541,0.826-1.231,0.826-1.998v-11.452C279.5,301.564,278.232,300.294,276.672,300.294z"/>
	<path d="M206.109,300.114c-4.895,0-8.875,3.98-8.875,8.871c0,4.896,3.98,8.879,8.875,8.879c4.896,0,8.877-3.982,8.877-8.879
		C214.986,304.095,211.005,300.114,206.109,300.114z"/>
	<path d="M256.02,73.409c0,0-135.021,155.613-135.021,230.161c0,74.564,60.439,135.021,135.021,135.021
		c74.547,0,134.979-60.456,134.979-135.021C390.999,229.022,256.02,73.409,256.02,73.409z M334.137,331.131
		c0,6.018-4.579,10.981-10.434,11.603v19.475h-31.488v-19.412h-72.432v19.412h-31.488v-19.475
		c-5.854-0.621-10.435-5.585-10.435-11.603V290.4c0-6.43,5.23-11.66,11.662-11.66h2.49l1.853-10.544
		c1.921-10.944,3.845-21.887,5.771-32.831c0.899-5.113,4.966-8.958,10.125-9.564c15.351-1.797,30.906-2.711,46.241-2.711
		c15.329,0,30.884,0.914,46.234,2.711c5.082,0.598,9.244,4.531,10.128,9.564l7.62,43.375h2.493c6.43,0,11.659,5.231,11.659,11.66
		V331.131z"/>
	<path d="M305.89,300.114c-4.896,0-8.877,3.98-8.877,8.871c0,4.896,3.981,8.879,8.877,8.879c4.894,0,8.873-3.982,8.873-8.879
		C314.763,304.095,310.783,300.114,305.89,300.114z"/>
</g>
</svg>
