<?xml version="1.0" encoding="utf-8"?>
<!-- Generator: Adobe Illustrator 16.0.0, SVG Export Plug-In . SVG Version: 6.00 Build 0)  -->
<!DOCTYPE svg PUBLIC "-//W3C//DTD SVG 1.1//EN" "http://www.w3.org/Graphics/SVG/1.1/DTD/svg11.dtd">
<svg version="1.1" id="Layer_1" xmlns="http://www.w3.org/2000/svg" xmlns:xlink="http://www.w3.org/1999/xlink" x="0px" y="0px"
	 width="512px" height="512px" viewBox="0 0 512 512" enable-background="new 0 0 512 512" xml:space="preserve">
<g>
	<path d="M299.083,291.149h-4.322l-13.226-75.272c-1.534-8.73-8.754-15.56-17.572-16.597c-26.642-3.118-53.636-4.704-80.236-4.704
		c-26.612,0-53.607,1.586-80.249,4.704c-8.949,1.052-16.007,7.726-17.568,16.597c-3.342,18.993-6.68,37.984-10.014,56.979
		l-3.215,18.293h-4.32c-11.162,0-20.24,9.079-20.24,20.236v70.683c0,10.443,7.945,19.059,18.106,20.133V436h54.645v-33.688h125.701
		V436h54.642v-33.799c10.161-1.074,18.105-9.689,18.105-20.133v-70.683C319.319,300.23,310.246,291.149,299.083,291.149z
		 M97.144,359.045c-8.492,0-15.401-6.911-15.401-15.406c0-8.487,6.909-15.396,15.401-15.396c8.497,0,15.406,6.909,15.406,15.396
		C112.55,352.134,105.641,359.045,97.144,359.045z M224.503,353.334c0,1.334-0.496,2.529-1.434,3.47
		c-0.938,0.935-2.141,1.435-3.471,1.435h-71.752c-2.708,0-4.908-2.196-4.908-4.908v-19.869c0-2.702,2.2-4.906,4.908-4.906h71.75
		c2.705,0,4.906,2.204,4.906,4.906V353.334z M110.795,283.606l1.019-5.792l7.199-41.016c0.69-3.901,3.683-6.729,7.622-7.188
		c18.947-2.225,38.146-3.348,57.092-3.348c18.937,0,38.145,1.125,57.083,3.35c3.938,0.457,6.933,3.289,7.619,7.194l8.219,46.8
		H110.795z M270.3,359.045c-8.497,0-15.406-6.911-15.406-15.406c0-8.487,6.909-15.396,15.406-15.396
		c8.493,0,15.402,6.909,15.402,15.396C285.702,352.134,278.793,359.045,270.3,359.045z"/>
	<path d="M463.88,168.199h-3.773v-50.881l-23.985-24.096l-2.455,18.996l8.608,8.716v47.265h-3.773v52h5.758v78.163
		c0,9.089-7.395,16.482-16.484,16.482c-9.089,0-16.482-7.394-16.482-16.482v-78.817H387.01v-7.171h12.286L422.569,76H199.26
		l16.219,95.045c11.874,0.535,23.77,1.382,35.633,2.507l-10.726-62.85h141.059l-11.429,66.972h-93.005
		c14.542,5.432,25.652,18.313,28.412,34.005l10.266,58.432c16.332,6.594,27.884,22.61,27.884,41.275v70.683
		c0,1.474-0.089,2.928-0.229,4.365h68.517V341.7H387.01V233.426h10.401v64.937c0,16.742,13.622,30.363,30.363,30.363
		c16.742,0,30.365-13.621,30.365-30.363v-78.163h5.74V168.199z"/>
</g>
</svg>
