<?xml version="1.0" encoding="utf-8"?>
<!-- Generator: Adobe Illustrator 16.0.0, SVG Export Plug-In . SVG Version: 6.00 Build 0)  -->
<!DOCTYPE svg PUBLIC "-//W3C//DTD SVG 1.1//EN" "http://www.w3.org/Graphics/SVG/1.1/DTD/svg11.dtd">
<svg version="1.1" id="Layer_1" xmlns="http://www.w3.org/2000/svg" xmlns:xlink="http://www.w3.org/1999/xlink" x="0px" y="0px"
	 width="512px" height="512px" viewBox="0 0 512 512" enable-background="new 0 0 512 512" xml:space="preserve">
<g>
	<path d="M250.96,166.772c0,0,4.431-36.9-7.895-61.225c-7.169-14.147-21.447-17.498-29.49-16.025
		c-13.793,2.526-23.965,14.613-22.469,28.556C194.382,148.628,240.554,141.063,250.96,166.772z"/>
	<path d="M286.488,158.614c2.686-5.408,0.379-11.808-4.812-14.887c-3.029-1.794-9.296-2.572-14.304,2.073
		c-8.609,7.984-12.327,23.55-12.327,23.55C263.086,160.519,280.606,170.465,286.488,158.614z"/>
	<path d="M297.988,104.068c0-9.79-7.96-17.42-17.722-18.149c-5.693-0.422-15.353,2.966-19.276,13.319
		c-6.744,17.802-0.92,43.084-0.92,43.084C265.377,123.703,297.988,125.518,297.988,104.068z"/>
	<path d="M251.316,99.804c0,0,5.823-25.283-0.921-43.083c-3.923-10.354-13.583-13.743-19.276-13.32
		c-9.762,0.729-17.722,8.36-17.722,18.149C213.397,82.997,246.008,81.184,251.316,99.804z"/>
	<polygon points="287.78,176.597 224.223,176.597 221.875,199.557 293.894,236.306 	"/>
	<polygon points="222.393,319.61 305.694,351.545 296.817,264.843 	"/>
	<polygon points="311.083,404.232 308.211,376.173 263.545,404.232 	"/>
	<polygon points="210.55,310.142 291.071,250.89 220.316,214.787 	"/>
	<polygon points="200.917,404.232 236.341,404.232 299.813,364.362 208.584,329.388 	"/>
	<polygon points="184.628,417.732 184.628,441.301 204.762,441.301 204.762,468.634 222.563,468.634 222.563,441.301 
		289.437,441.301 289.437,468.634 307.238,468.634 307.238,441.301 327.372,441.301 327.372,417.732 	"/>
</g>
</svg>
