<?xml version="1.0" encoding="utf-8"?>
<!-- Generator: Adobe Illustrator 16.0.0, SVG Export Plug-In . SVG Version: 6.00 Build 0)  -->
<!DOCTYPE svg PUBLIC "-//W3C//DTD SVG 1.1//EN" "http://www.w3.org/Graphics/SVG/1.1/DTD/svg11.dtd">
<svg version="1.1" id="Layer_1" xmlns="http://www.w3.org/2000/svg" xmlns:xlink="http://www.w3.org/1999/xlink" x="0px" y="0px"
	 width="512px" height="512px" viewBox="0 0 512 512" enable-background="new 0 0 512 512" xml:space="preserve">
<g>
	<path d="M37.578,150.317c0,14.768,11.971,26.737,26.741,26.737c14.766,0,26.735-11.97,26.735-26.737s-26.735-45.586-26.735-45.586
		S37.578,135.55,37.578,150.317z"/>
	<path d="M470.979,206.563c-4.481-12.273-12.782-22.217-22.07-30.094l2.8-4.878l-27.377-15.716l3.425-6.339l-114.077-61.62
		l-0.003,0.007l-29.593-15.978l-99.853-8.488l-4.177,7.732l-44.723-24.157l-66.829,6.595l2.455,24.88l59.221-5.845l37.994,20.522
		l-4.854,8.985l77.802,42.024l13.542,52.983l30.265,16.345l42.795-5.333l58.063,19.044l16.22-30.029l0.003,0.003l4.258-7.886
		l26.524,15.227l1.848-3.219c4.76,4.756,8.188,9.768,10.041,14.841c2.987,8.177,2.055,16.837-2.89,26.548
		c-11.484,22.909-46.961,40.323-105.441,51.761c-9.396,1.838-19.121,2.925-29.418,4.076c-31.362,3.503-66.909,7.476-90.902,36.435
		l-0.108,0.131c-19.171,23.721-22.8,52.629-9.955,79.313c14.652,30.442,48.06,50.752,83.13,50.534l-0.172-27.999
		c-24.473,0.15-47.672-13.786-57.729-34.679c-4.672-9.708-10.042-29.039,6.447-49.499c16.78-20.192,42.558-23.075,72.399-26.409
		c10.403-1.163,21.162-2.365,31.684-4.424c68.384-13.374,109.304-35.188,125.058-66.613
		C475.286,238.637,476.699,222.224,470.979,206.563z M376.134,203.019l-44.354-14.547l-31.7-2.83l4.015-7.431l14.173-26.237
		l66.141,35.727L376.134,203.019z"/>
</g>
</svg>
