<?xml version="1.0" encoding="utf-8"?>
<!-- Generator: Adobe Illustrator 16.0.0, SVG Export Plug-In . SVG Version: 6.00 Build 0)  -->
<!DOCTYPE svg PUBLIC "-//W3C//DTD SVG 1.1//EN" "http://www.w3.org/Graphics/SVG/1.1/DTD/svg11.dtd">
<svg version="1.1" id="Layer_1" xmlns="http://www.w3.org/2000/svg" xmlns:xlink="http://www.w3.org/1999/xlink" x="0px" y="0px"
	 width="512px" height="512px" viewBox="0 0 512 512" enable-background="new 0 0 512 512" xml:space="preserve">
<path d="M407.596,191.75h-3.773v-50.881l-23.985-24.095l-2.455,18.996l8.608,8.716v47.265h-3.773v52h4.676v89.646
	c0,10.477-8.523,19-19,19s-19-8.523-19-19v-90.85h-27.99v-8.267h14.164l26.826-157.195H104.488l26.826,157.195h14.164v149.072
	h-28.645v51.563h232.715v-51.563h-28.646V258.547h11.99v74.85c0,19.299,15.701,35,35,35s35-15.701,35-35V243.75h4.703V191.75z
	 M301.314,194.28H165.066l-13.174-77.195h162.596L301.314,194.28z"/>
</svg>
