<?xml version="1.0" encoding="utf-8"?>
<!-- Generator: Adobe Illustrator 16.0.0, SVG Export Plug-In . SVG Version: 6.00 Build 0)  -->
<!DOCTYPE svg PUBLIC "-//W3C//DTD SVG 1.1//EN" "http://www.w3.org/Graphics/SVG/1.1/DTD/svg11.dtd">
<svg version="1.1" id="Layer_1" xmlns="http://www.w3.org/2000/svg" xmlns:xlink="http://www.w3.org/1999/xlink" x="0px" y="0px"
	 width="512px" height="512px" viewBox="0 0 512 512" enable-background="new 0 0 512 512" xml:space="preserve">
<g>
	<rect x="254.752" y="258.208" width="70.03" height="70.034"/>
	<path d="M387.009,107.139H224.093l-18.029,18.029l-24.325-24.323l-10.942,10.943l-42.525-30.964L76,109.641v22.019l44.399-19.363
		l25.123,24.764l-10.956,10.96l24.324,24.32l-14.762,14.762v244.074H436V156.129C419.669,139.8,403.339,123.468,387.009,107.139z
		 M258.495,135.423h63.139v18.468h-63.139V135.423z M371.88,356.298l-16.507,16.506l-21.22-21.222h-88.771l-21.221,21.222
		l-16.508-16.506l23.757-23.758v-78.63l-23.757-23.758l16.508-16.509l21.221,21.225h88.771l21.22-21.225l16.507,16.509
		l-23.755,23.758v78.63L371.88,356.298z M368.479,169.174v-43.283l43.285,43.283H368.479z"/>
</g>
</svg>
