<?xml version="1.0" encoding="utf-8"?>
<!-- Generator: Adobe Illustrator 16.0.0, SVG Export Plug-In . SVG Version: 6.00 Build 0)  -->
<!DOCTYPE svg PUBLIC "-//W3C//DTD SVG 1.1//EN" "http://www.w3.org/Graphics/SVG/1.1/DTD/svg11.dtd">
<svg version="1.1" id="Layer_1" xmlns="http://www.w3.org/2000/svg" xmlns:xlink="http://www.w3.org/1999/xlink" x="0px" y="0px"
	 width="512px" height="512px" viewBox="0 0 512 512" enable-background="new 0 0 512 512" xml:space="preserve">
<g>
	<polygon points="252.992,350.11 267.18,350.11 260.039,334.07 	"/>
	<path d="M256,83.948c-94.871,0-172.052,77.181-172.052,172.052S161.129,428.052,256,428.052S428.052,350.871,428.052,256
		S350.871,83.948,256,83.948z M229.487,349.398v15.143c0,1.792-0.855,3.476-2.305,4.529c-5.908,4.306-13.372,6.774-20.47,6.774
		c-17.221,0-30.713-13.126-30.713-29.884c0-16.671,13.623-29.729,31.017-29.729c6.934,0,13.807,2.225,19.351,6.261
		c1.219,0.891,2.031,2.234,2.247,3.729c0.215,1.492-0.183,3.01-1.102,4.208l-0.448,0.586c-1.844,2.403-5.266,2.905-7.725,1.132
		c-3.586-2.593-7.965-4.021-12.323-4.021c-10.292,0-18.667,8.001-18.667,17.834c0,9.877,8.408,17.912,18.74,17.912
		c3.598,0,7.455-1.103,10.806-3.061v-5.814h-10.174c-3.095,0-5.604-2.506-5.604-5.6v-0.343c0-3.093,2.509-5.6,5.604-5.6h15.772
		h0.391c3.094,0,5.603,2.507,5.603,5.6V349.398z M287.88,372.987c-1.033,1.594-2.804,2.554-4.701,2.554h-1.114
		c-2.221,0-4.23-1.312-5.125-3.343l-4.428-10.042h-24.828l-4.426,10.042c-0.894,2.031-2.906,3.343-5.125,3.343h-0.959
		c-1.9,0-3.669-0.962-4.7-2.557c-1.032-1.596-1.187-3.602-0.41-5.336l21.511-47.956c0.902-2.013,2.902-3.309,5.11-3.309h3.053
		c2.208,0,4.21,1.296,5.113,3.313l21.44,47.956C289.068,369.386,288.913,371.395,287.88,372.987z M313.757,375.769
		c-7.27,0-15.021-2.792-20.734-7.464c-2.025-1.659-2.632-4.5-1.46-6.844l0.438-0.875c0.747-1.497,2.126-2.578,3.757-2.953
		c1.625-0.375,3.341,0,4.667,1.018c4.003,3.078,8.891,4.845,13.407,4.845c1.55,0,9.289-0.242,9.289-5.042
		c0.02-3.499-2.836-4.964-10.887-7.358c-8.391-2.493-18.833-5.596-18.833-18.139c0-10.049,8.604-16.801,21.414-16.801
		c5.539,0,11.472,1.492,16.271,4.087c2.587,1.401,3.651,4.563,2.435,7.238l-0.516,1.137c-0.633,1.403-1.815,2.481-3.27,2.983
		c-1.455,0.501-3.053,0.383-4.418-0.327c-3.375-1.76-7.344-2.767-10.882-2.767c-1.914,0-8.155,0.282-8.155,3.92
		c0,3.32,2.819,4.771,10.76,7.19c8.024,2.441,19.01,5.784,18.959,18.543C336,368.682,327.059,375.769,313.757,375.769z M291.666,256
		c0.824,5.49,0.477,11.155-1.117,16.624c-4.798,16.47-20.125,27.972-37.268,27.972h-0.002c-3.674,0-7.336-0.525-10.879-1.559
		c-18.857-5.498-30.375-24.126-27.529-43.037H123.34c0-73.15,59.51-132.66,132.66-132.66S388.66,182.85,388.66,256H291.666z"/>
	<path d="M230.193,253.461c-3.729,12.802,3.621,26.205,16.421,29.94c12.802,3.728,26.204-3.62,29.94-16.422
		c2.064-7.084,0.733-14.344-3.037-20.056l9.26-87.553l-39.248,78.808C237.284,240.974,232.26,246.382,230.193,253.461z"/>
</g>
</svg>
