<?xml version="1.0" encoding="utf-8"?>
<!-- Generator: Adobe Illustrator 16.0.0, SVG Export Plug-In . SVG Version: 6.00 Build 0)  -->
<!DOCTYPE svg PUBLIC "-//W3C//DTD SVG 1.1//EN" "http://www.w3.org/Graphics/SVG/1.1/DTD/svg11.dtd">
<svg version="1.1" id="Layer_1" xmlns="http://www.w3.org/2000/svg" xmlns:xlink="http://www.w3.org/1999/xlink" x="0px" y="0px"
	 width="512px" height="512px" viewBox="0 0 512 512" enable-background="new 0 0 512 512" xml:space="preserve">
<g>
	<path d="M331.819,183.004h-32.65v-40.27h-32.494v-24.579c15.977-0.313,31.964-1.315,47.998-3.03
		c17.703-10.063,17.701-17.105,0-27.167c-16.034-1.716-32.021-2.716-47.998-3.029v-7.547h-21.35v7.547
		c-15.977,0.313-31.964,1.313-47.998,3.029c-17.702,10.062-17.702,17.104,0,27.167c16.034,1.715,32.021,2.718,47.998,3.03v24.579
		h-32.494v40.27h-32.65v23.383h151.638V183.004z M233.216,163.119h45.567v19.885h-45.567V163.119z"/>
	<path d="M398.962,317.374h-67.535c-10.01-0.209-18.092-8.403-18.092-18.462V272.61c0-10.195,8.291-18.486,18.483-18.486v-2.967
		v-9.021v-14.362H180.181v14.362v9.021v2.967c10.192,0,18.483,8.291,18.483,18.486v26.302c0,10.059-8.082,18.253-18.092,18.462
		h-67.535v-15.854h-25.3v133.098h25.3v-16.185h285.925v16.185h25.3V301.521h-25.3V317.374z"/>
	<rect x="445.7" y="301.521" width="25.3" height="133.098"/>
	<rect x="41" y="301.521" width="25.3" height="133.098"/>
</g>
</svg>
