<?xml version="1.0" encoding="utf-8"?>
<!-- Generator: Adobe Illustrator 16.0.0, SVG Export Plug-In . SVG Version: 6.00 Build 0)  -->
<!DOCTYPE svg PUBLIC "-//W3C//DTD SVG 1.1//EN" "http://www.w3.org/Graphics/SVG/1.1/DTD/svg11.dtd">
<svg version="1.1" id="Layer_1" xmlns="http://www.w3.org/2000/svg" xmlns:xlink="http://www.w3.org/1999/xlink" x="0px" y="0px"
	 width="512px" height="512px" viewBox="0 0 512 512" enable-background="new 0 0 512 512" xml:space="preserve">
<path d="M367.435,433.039l-31.241-138.715l89.23,34.109v38.418h-29.251c-0.247,1.679-0.371,3.376-0.371,5.077
	c0,19.317,15.719,35.031,35.037,35.031c19.312,0,35.031-15.714,35.031-35.031c0-1.701-0.124-3.398-0.371-5.077h-29.252v-34.282
	l12.335,4.715l13.815-37.186l-35.198-39.503l-235.703-90.099l5.948-103.122l-49.822-19.019L55.29,292.477l20.412,7.793v38.07H55.29
	v68.487h20.388v-35.825h13.04v35.825h20.387v-68.487h-20.41V305.23l15.95,6.089l64.095-81.006l84.266,32.211v170.514H42.997v30.606
	h426.006v-30.606H367.435z M278.994,433.039v-160.56l-0.064-0.045l28.115,10.747L340.8,433.039H278.994z"/>
</svg>
