<?xml version="1.0" encoding="utf-8"?>
<!-- Generator: Adobe Illustrator 16.0.0, SVG Export Plug-In . SVG Version: 6.00 Build 0)  -->
<!DOCTYPE svg PUBLIC "-//W3C//DTD SVG 1.1//EN" "http://www.w3.org/Graphics/SVG/1.1/DTD/svg11.dtd">
<svg version="1.1" id="Layer_1" xmlns="http://www.w3.org/2000/svg" xmlns:xlink="http://www.w3.org/1999/xlink" x="0px" y="0px"
	 width="512px" height="512px" viewBox="0 0 512 512" enable-background="new 0 0 512 512" xml:space="preserve">
<g>
	<path d="M256,426.699c-50.352,0-97.931-6.866-135-19.394v16.098v0.001c0,17.219,60.44,31.182,135,31.182
		c74.559,0,135-13.963,135-31.182v-0.001v-16.098C353.931,419.833,306.352,426.699,256,426.699z"/>
	<path d="M208.508,233.925c-15.268,0-27.687,11.907-27.687,26.542c0,14.699,12.419,26.658,27.687,26.658
		c15.145,0,27.466-11.959,27.466-26.658C235.974,245.832,223.652,233.925,208.508,233.925z"/>
	<path d="M124.736,116.57v277.921C157.013,406.116,202.218,413.96,256,413.96s98.987-7.844,131.264-19.469V116.57
		c-36.041,12.183-82.307,18.861-131.264,18.861C207.041,135.432,160.777,128.753,124.736,116.57z M208.508,306.48
		c-26.641,0-47.508-20.212-47.508-46.014c0-25.674,20.867-45.785,47.508-45.785c26.579,0,47.4,20.111,47.4,45.785
		C255.908,286.269,235.087,306.48,208.508,306.48z M295.937,224.527c0-5.311,4.304-9.615,9.615-9.615h0.469
		c5.311,0,9.615,4.305,9.615,9.615v62.251h25.749c5.309,0,9.614,4.304,9.615,9.613c0.001,5.311-4.302,9.616-9.612,9.617
		l-35.833,0.013h-0.003c-2.55,0-4.994-1.013-6.797-2.815c-1.806-1.803-2.818-4.249-2.818-6.8V224.527z M262.289,224.527
		c0-5.311,4.305-9.615,9.616-9.615h0.464c5.311,0,9.616,4.305,9.616,9.615v71.879c0,5.311-4.306,9.615-9.616,9.615h-0.464
		c-5.312,0-9.616-4.305-9.616-9.615V224.527z"/>
	<path d="M390.698,103.438V88.53c0-17.184-60.309-31.116-134.698-31.116c-74.391,0-134.698,13.933-134.698,31.116v14.907
		c33.12,11.928,79.508,19.977,134.698,19.977S357.576,115.365,390.698,103.438z M191.386,93.076c-12.446,0-22.537-3.7-22.537-8.263
		c0-4.562,10.091-8.258,22.537-8.258c12.449,0,22.539,3.696,22.539,8.258C213.925,89.376,203.835,93.076,191.386,93.076z"/>
</g>
</svg>
