<?xml version="1.0" encoding="utf-8"?>
<!-- Generator: Adobe Illustrator 16.0.0, SVG Export Plug-In . SVG Version: 6.00 Build 0)  -->
<!DOCTYPE svg PUBLIC "-//W3C//DTD SVG 1.1//EN" "http://www.w3.org/Graphics/SVG/1.1/DTD/svg11.dtd">
<svg version="1.1" id="Layer_1" xmlns="http://www.w3.org/2000/svg" xmlns:xlink="http://www.w3.org/1999/xlink" x="0px" y="0px"
	 width="512px" height="512px" viewBox="0 0 512 512" enable-background="new 0 0 512 512" xml:space="preserve">
<g>
	<path d="M394.466,440.194c-6.619,4.591-11.847,8.217-23.136,8.217s-16.517-3.626-23.136-8.217
		c-7.568-5.25-16.988-11.783-34.534-11.783c-17.545,0-26.964,6.533-34.533,11.783c-6.619,4.591-11.846,8.217-23.134,8.217
		c-11.288,0-16.515-3.626-23.133-8.217c-7.568-5.25-16.987-11.783-34.532-11.783s-26.963,6.533-34.531,11.783
		c-6.618,4.591-11.845,8.217-23.131,8.217c-11.288,0-16.515-3.626-23.133-8.217c-7.568-5.25-16.987-11.783-34.532-11.783v20
		c11.288,0,16.515,3.626,23.133,8.217c7.568,5.249,16.987,11.783,34.532,11.783c17.544,0,26.963-6.534,34.531-11.783
		c6.618-4.591,11.845-8.217,23.132-8.217c11.288,0,16.515,3.626,23.133,8.217c7.568,5.249,16.987,11.783,34.533,11.783
		s26.964-6.534,34.533-11.783c6.618-4.591,11.846-8.217,23.134-8.217c11.289,0,16.517,3.626,23.136,8.217
		c7.569,5.25,16.988,11.783,34.534,11.783s26.965-6.533,34.534-11.783c6.619-4.591,11.847-8.217,23.136-8.217v-20
		C411.454,428.411,402.035,434.944,394.466,440.194z"/>
	<path d="M248.392,153.589c-3.577-9.133-8.077-22.535,7.608-37.755c0.647,13.375,14.069,13.99,11.351,36.793
		c6.231-2.136,6.231-2.136,9.188-3.782c17.285-9.612,20.39-25.204,7.64-42.896c-7.316-10.153-11.944-20.58-10.928-33.23
		c-4.206,4.269-5.393,9.443-6.743,17.128c-5.117-3.688,3.067-41.28-22.595-46.259c5.362,13.836,7.565,25.757-2.606,40.076
		c-0.668-5.423-3.255-12.264-8.834-17.183c-0.946,16.386,0.97,23.367-9.507,44.682c-2.945,8.901-5.02,17.634,0.533,26.418
		C228.984,146.263,238.186,151.794,248.392,153.589z"/>
	<path d="M201.744,421.183l6.139,0.761c0.412,0.052,0.821,0.106,1.228,0.163l7.974,1.121v-13.926h77.83v13.922l7.973-1.119
		c0.408-0.057,0.818-0.111,1.23-0.163l6.138-0.762v-11.878H322.5v-21.959h-133v21.959h12.244V421.183z"/>
	<polygon points="224.205,184.06 291.307,218.3 285.611,162.667 226.392,162.667 	"/>
	<polygon points="302.302,325.673 294.031,244.888 224.688,295.917 	"/>
	<polygon points="307.322,374.762 304.646,348.619 263.029,374.762 	"/>
	<polygon points="222.752,198.249 213.652,287.095 288.676,231.888 	"/>
	<polygon points="296.823,337.614 211.821,305.027 204.678,374.762 237.684,374.762 	"/>
</g>
</svg>
