<?xml version="1.0" encoding="utf-8"?>
<!-- Generator: Adobe Illustrator 16.0.0, SVG Export Plug-In . SVG Version: 6.00 Build 0)  -->
<!DOCTYPE svg PUBLIC "-//W3C//DTD SVG 1.1//EN" "http://www.w3.org/Graphics/SVG/1.1/DTD/svg11.dtd">
<svg version="1.1" id="Layer_1" xmlns="http://www.w3.org/2000/svg" xmlns:xlink="http://www.w3.org/1999/xlink" x="0px" y="0px"
	 width="512px" height="512px" viewBox="0 0 512 512" enable-background="new 0 0 512 512" xml:space="preserve">
<g>
	<polygon points="274.841,50.428 222.701,50.428 220.775,73.389 279.856,110.137 	"/>
	<polygon points="289.537,225.377 282.255,138.674 221.2,193.441 	"/>
	<polygon points="219.496,88.617 211.484,183.973 277.541,124.721 	"/>
	<polygon points="419.901,184.379 406.753,190.625 405.465,234.563 436.472,212.848 	"/>
	<path d="M95.797,409.348c10.34,3.037,17.46,7.971,22.812,11.682c3.269,2.268,5.353,3.709,7.649,4.553v-83.723h8.77v-8.432h89.742
		v8.432h8.77v78.895c0.132,0.092,0.267,0.186,0.397,0.275c5.975,4.146,7.988,5.543,14.584,5.543c6.597,0,8.609-1.396,14.584-5.541
		c0.292-0.203,0.592-0.41,0.896-0.621v-78.551h8.77v-8.432h89.258v8.432h8.77v83.723c2.295-0.846,4.379-2.285,7.646-4.551
		c5.353-3.713,12.474-8.646,22.815-11.686v-67.486h8.77v-32.66h-9.016v-37.557h-48.494l38.127-26.701l-49.306-15.93l3.846,42.631
		h-8.661l-4.124-45.709l-25.272,12h-22.972l-74.285-34.715l-2.917,34.715h-21.818v-34.715h-53.998v68.424H96.528v37.557h-9.5v32.66
		h8.77V409.348z"/>
	<polygon points="398.031,194.766 343.421,220.697 396.767,237.934 	"/>
	<path d="M363.858,441.572c-11.289,0-16.517-3.625-23.136-8.217c-7.568-5.25-16.988-11.783-34.534-11.783
		c-17.545,0-26.964,6.533-34.533,11.783c-6.619,4.592-11.846,8.217-23.134,8.217c-11.288,0-16.515-3.625-23.133-8.217
		c-7.568-5.25-16.987-11.783-34.532-11.783s-26.963,6.533-34.531,11.783c-6.618,4.592-11.845,8.217-23.131,8.217
		c-11.288,0-16.515-3.625-23.133-8.217c-7.568-5.25-16.987-11.783-34.532-11.783v20c11.288,0,16.515,3.627,23.133,8.217
		c7.568,5.25,16.987,11.783,34.532,11.783c17.544,0,26.963-6.533,34.531-11.783c6.618-4.59,11.845-8.217,23.132-8.217
		c11.288,0,16.515,3.627,23.133,8.217c7.568,5.25,16.987,11.783,34.533,11.783s26.964-6.533,34.533-11.783
		c6.618-4.59,11.846-8.217,23.134-8.217c11.289,0,16.517,3.627,23.136,8.217c7.569,5.25,16.988,11.783,34.534,11.783
		s26.965-6.533,34.534-11.783c6.619-4.59,11.847-8.217,23.136-8.217v-20c-17.546,0-26.965,6.533-34.534,11.783
		C380.375,437.947,375.147,441.572,363.858,441.572z"/>
</g>
</svg>
