<?xml version="1.0" encoding="utf-8"?>
<!-- Generator: Adobe Illustrator 16.0.0, SVG Export Plug-In . SVG Version: 6.00 Build 0)  -->
<!DOCTYPE svg PUBLIC "-//W3C//DTD SVG 1.1//EN" "http://www.w3.org/Graphics/SVG/1.1/DTD/svg11.dtd">
<svg version="1.1" id="Layer_1" xmlns="http://www.w3.org/2000/svg" xmlns:xlink="http://www.w3.org/1999/xlink" x="0px" y="0px"
	 width="512px" height="512px" viewBox="0 0 512 512" enable-background="new 0 0 512 512" xml:space="preserve">
<g>
	<path d="M248.391,167.631c-3.576-9.132-8.076-22.535,7.609-37.755c0.646,13.375,14.068,13.99,11.351,36.794
		c6.231-2.137,6.231-2.137,9.188-3.781c17.285-9.612,20.39-25.205,7.64-42.896c-7.316-10.153-11.945-20.58-10.927-33.23
		c-4.207,4.269-5.394,9.444-6.744,17.129c-5.117-3.688,3.067-41.28-22.595-46.26c5.362,13.836,7.564,25.758-2.607,40.076
		c-0.667-5.422-3.255-12.263-8.834-17.183c-0.945,16.386,0.97,23.368-9.507,44.682c-2.945,8.902-5.02,17.635,0.533,26.418
		C228.984,160.305,238.185,165.837,248.391,167.631z"/>
	<path d="M388.368,429.246h-15.835v-61.829l-74.409-78.541V267.36c0-6.073-4.477-11.087-10.308-11.956v-82.156h-63.633v82.156
		c-5.831,0.869-10.308,5.883-10.308,11.956v21.516l-74.409,78.541v61.829h-15.835l-25.124,25.123h314.984L388.368,429.246z
		 M224.184,429.246h-61.717v-29.782h61.717V429.246z M224.184,377.588h-61.717v-1.007l51.471-54.329
		c0.555,5.513,4.813,9.919,10.246,10.729V377.588z M349.533,429.246h-61.717v-29.782h61.717V429.246z M349.533,377.588h-61.717
		v-44.606c5.434-0.811,9.691-5.217,10.246-10.729l51.471,54.329V377.588z"/>
</g>
</svg>
