<?xml version="1.0" encoding="utf-8"?>
<!-- Generator: Adobe Illustrator 16.0.0, SVG Export Plug-In . SVG Version: 6.00 Build 0)  -->
<!DOCTYPE svg PUBLIC "-//W3C//DTD SVG 1.1//EN" "http://www.w3.org/Graphics/SVG/1.1/DTD/svg11.dtd">
<svg version="1.1" id="Layer_1" xmlns="http://www.w3.org/2000/svg" xmlns:xlink="http://www.w3.org/1999/xlink" x="0px" y="0px"
	 width="512px" height="512px" viewBox="0 0 512 512" enable-background="new 0 0 512 512" xml:space="preserve">
<path d="M456.482,380.207v-68.306h-16.676v-24.856c0-21.864-16.201-39.935-37.254-42.883v-0.798
	c0-26.702-21.723-48.426-48.426-48.426h-1.609c-26.701,0-48.426,21.724-48.426,48.426v87.634h-23.641v-93.17
	c0-6.083-3.248-11.394-8.096-14.333c5.662-1.667,9.799-6.896,9.799-13.098c0-7.544-6.117-13.661-13.662-13.661H257.51v-12.727h-17
	v12.727h-10.984c-7.545,0-13.66,6.116-13.66,13.661c0,6.202,4.137,11.431,9.799,13.098c-4.848,2.94-8.098,8.25-8.098,14.333v93.17
	h-23v-85.596c0-4.458-3.613-8.071-8.07-8.071h-16.412V149.74c0-16.03-13.041-29.071-29.07-29.071v-1.267
	c0-23.608-19.139-42.748-42.748-42.748s-42.748,19.14-42.748,42.748v260.805h-21.54v55.139h444.044v-55.139H456.482z
	 M320.234,243.364c0-17.801,14.482-32.284,32.283-32.284h1.609c17.803,0,32.285,14.483,32.285,32.284v1.559
	c-19.059,4.545-33.232,21.673-33.232,42.123v24.856h-16.676v19.097h-16.27V243.364z M336.504,347.139v33.068h-16.27v-33.068H336.504
	z M304.092,347.139v33.068h-23.641v-33.068H304.092z M178.426,253.473v85.596c0,4.458,3.613,8.071,8.07,8.071h31.07v33.068h-47.482
	V253.473H178.426z M141.014,136.811c7.129,0,12.93,5.8,12.93,12.929v87.591h-12.93V136.811z M141.014,253.473h12.93v126.734h-12.93
	V253.473z"/>
</svg>
