<?xml version="1.0" encoding="utf-8"?>
<!-- Generator: Adobe Illustrator 16.0.0, SVG Export Plug-In . SVG Version: 6.00 Build 0)  -->
<!DOCTYPE svg PUBLIC "-//W3C//DTD SVG 1.1//EN" "http://www.w3.org/Graphics/SVG/1.1/DTD/svg11.dtd">
<svg version="1.1" id="Layer_1" xmlns="http://www.w3.org/2000/svg" xmlns:xlink="http://www.w3.org/1999/xlink" x="0px" y="0px"
	 width="512px" height="512px" viewBox="0 0 512 512" enable-background="new 0 0 512 512" xml:space="preserve">
<g>
	<path d="M36.945,282.881l31.285,90.73c1.074,0.267,2.271,0.387,3.769,0.387c5.156,0,6.822-1.379,11.77-5.475
		c6.525-5.402,16.386-13.564,34.229-13.564c17.845,0,27.705,8.163,34.23,13.564c4.946,4.096,6.612,5.475,11.768,5.475
		s6.821-1.379,11.769-5.474c6.529-5.404,16.389-13.565,34.231-13.565c17.844,0,27.704,8.163,34.23,13.564
		c4.945,4.096,6.612,5.475,11.767,5.475c5.155,0,6.822-1.379,11.769-5.475c6.525-5.401,16.384-13.564,34.229-13.564
		c17.845,0,27.704,8.162,34.229,13.564c4.948,4.096,6.614,5.475,11.77,5.475c5.156,0,6.822-1.379,11.77-5.475
		c6.525-5.402,16.386-13.564,34.23-13.564c11.389,0,19.515,3.326,25.608,7.135l55.456-79.213h-51.359v-40.608H404.96v-32.204
		h-12.361v-74.359h-12.76v74.359h-12.356v32.204h-18.74v40.608h-30.496V205.24H296.11v-23.627h-39.808v-71.22h-20.504v71.22h-7.053
		v23.627h-62.132v77.641h-47.736v-34.509h3.522l10.156-20.298H50.37l10.152,20.298h3.526v34.509H36.945z"/>
	<path d="M457.838,377.761c-5.373,4.448-9.256,7.662-17.844,7.662c-8.586,0-12.468-3.214-17.842-7.662
		c-6.123-5.069-13.747-11.378-28.162-11.378s-22.035,6.309-28.159,11.378c-5.372,4.448-9.255,7.662-17.841,7.662
		c-8.585,0-12.466-3.214-17.84-7.662c-6.122-5.069-13.744-11.378-28.159-11.378c-14.413,0-22.034,6.309-28.158,11.378
		c-5.372,4.448-9.255,7.662-17.84,7.662s-12.465-3.214-17.838-7.662c-6.123-5.069-13.746-11.378-28.159-11.378
		c-14.415,0-22.035,6.309-28.159,11.378c-5.373,4.448-9.255,7.662-17.841,7.662c-8.585,0-12.466-3.214-17.839-7.662
		c-6.123-5.069-13.745-11.378-28.159-11.378s-22.034,6.309-28.159,11.378c-5.373,4.448-9.255,7.662-17.84,7.662
		s-12.466-3.214-17.84-7.662c-6.125-5.069-13.744-11.378-28.159-11.378v16.185c8.585,0,12.466,3.213,17.84,7.66
		c6.125,5.069,13.745,11.379,28.159,11.379c14.415,0,22.035-6.31,28.159-11.379c5.374-4.447,9.255-7.66,17.84-7.66
		s12.467,3.213,17.839,7.66c6.124,5.069,13.745,11.379,28.159,11.379s22.037-6.31,28.16-11.379c5.373-4.447,9.255-7.66,17.84-7.66
		s12.467,3.213,17.838,7.66c6.125,5.069,13.745,11.379,28.159,11.379c14.415,0,22.038-6.31,28.16-11.379
		c5.373-4.447,9.253-7.66,17.838-7.66s12.469,3.213,17.841,7.66c6.124,5.069,13.744,11.379,28.158,11.379
		c14.415,0,22.037-6.31,28.159-11.379c5.374-4.447,9.256-7.66,17.841-7.66c8.587,0,12.47,3.214,17.843,7.661
		c6.124,5.069,13.746,11.378,28.161,11.378c14.416,0,22.039-6.309,28.163-11.378c5.375-4.448,9.256-7.661,17.843-7.661v-16.185
		C471.584,366.383,463.964,372.691,457.838,377.761z"/>
</g>
</svg>
