<?xml version="1.0" encoding="utf-8"?>
<!-- Generator: Adobe Illustrator 16.0.0, SVG Export Plug-In . SVG Version: 6.00 Build 0)  -->
<!DOCTYPE svg PUBLIC "-//W3C//DTD SVG 1.1//EN" "http://www.w3.org/Graphics/SVG/1.1/DTD/svg11.dtd">
<svg version="1.1" id="Layer_1" xmlns="http://www.w3.org/2000/svg" xmlns:xlink="http://www.w3.org/1999/xlink" x="0px" y="0px"
	 width="512px" height="512px" viewBox="0 0 512 512" enable-background="new 0 0 512 512" xml:space="preserve">
<g>
	<path d="M360.504,219.194c-8.839,0-16.027,6.894-16.027,15.364c0,8.512,7.188,15.435,16.027,15.435
		c8.768,0,15.902-6.923,15.902-15.435C376.406,226.088,369.271,219.194,360.504,219.194z"/>
	<path d="M396.04,155.096H115.961c-41.4,0-74.961,29.271-74.961,65.379v25.902c0,36.107,33.561,65.379,74.961,65.379h83.785V166.424
		h112.508v145.332h83.786c41.399,0,74.96-29.271,74.96-65.379v-25.902C471,184.367,437.439,155.096,396.04,155.096z
		 M132.366,268.867c-12.635,0-22.875-10.24-22.875-22.873c0-12.631,22.875-38.992,22.875-38.992s22.869,26.361,22.869,38.992
		C155.235,258.627,144.996,268.867,132.366,268.867z M360.504,261.198c-15.423,0-27.504-11.699-27.504-26.64
		c0-14.861,12.081-26.505,27.504-26.505c15.388,0,27.443,11.644,27.443,26.505C387.947,249.499,375.892,261.198,360.504,261.198z
		 M403.044,255.366c0,3.075-2.493,5.567-5.566,5.567h-0.269c-3.075,0-5.567-2.492-5.567-5.567v-41.614
		c0-3.075,2.492-5.567,5.567-5.567h0.269c3.073,0,5.566,2.492,5.566,5.567V255.366z M437.435,260.928l-20.746,0.006h-0.001
		c-1.476,0-2.892-0.585-3.934-1.629c-1.047-1.044-1.633-2.46-1.633-3.938v-41.614c0-3.075,2.492-5.567,5.566-5.567h0.271
		c3.076,0,5.568,2.492,5.568,5.567v36.04h14.906c3.074,0,5.566,2.491,5.567,5.566C443.001,258.435,440.51,260.927,437.435,260.928z"
		/>
	<path d="M300.477,145.057c0.019-0.32,0.048-0.639,0.048-0.963c0-9.404-7.625-17.031-17.03-17.031h-54.989
		c-9.405,0-17.031,7.627-17.031,17.031c0,0.324,0.03,0.643,0.049,0.963H300.477z"/>
	<path d="M429.996,318.658H301.275V177.402h-90.551v141.256H82.004v17.299h6.29c-3.436,5.025-5.447,11.104-5.447,17.652
		c0,17.303,14.026,31.328,31.329,31.328c11.586,0,21.696-6.295,27.115-15.646c5.42,9.352,15.53,15.646,27.117,15.646
		c17.303,0,31.328-14.025,31.328-31.328c0-6.549-2.012-12.627-5.447-17.652h123.424c-3.436,5.025-5.447,11.104-5.447,17.652
		c0,17.303,14.025,31.328,31.328,31.328c11.586,0,21.696-6.295,27.117-15.646c5.419,9.352,15.529,15.646,27.115,15.646
		c17.303,0,31.329-14.025,31.329-31.328c0-6.549-2.011-12.627-5.447-17.652h6.29V318.658z M114.176,369.682
		c-8.862,0-16.073-7.211-16.073-16.072s7.21-16.072,16.073-16.072c8.861,0,16.071,7.211,16.071,16.072
		S123.037,369.682,114.176,369.682z M168.407,369.682c-8.862,0-16.073-7.211-16.073-16.072s7.21-16.072,16.073-16.072
		c8.862,0,16.071,7.211,16.071,16.072S177.269,369.682,168.407,369.682z M228.488,197.994h55.023v30.889h-55.023V197.994z
		 M228.488,249.473h55.023v30.889h-55.023V249.473z M228.488,318.658v-17.705h55.023v17.705H228.488z M343.593,369.682
		c-8.862,0-16.071-7.211-16.071-16.072s7.209-16.072,16.071-16.072c8.862,0,16.072,7.211,16.072,16.072
		S352.455,369.682,343.593,369.682z M397.824,369.682c-8.861,0-16.071-7.211-16.071-16.072s7.209-16.072,16.071-16.072
		c8.862,0,16.073,7.211,16.073,16.072S406.687,369.682,397.824,369.682z"/>
</g>
</svg>
